<?xml version="1.0" encoding="iso-8859-1"?>
<!-- Generator: Adobe Illustrator 19.0.0, SVG Export Plug-In . SVG Version: 6.00 Build 0)  -->
<svg version="1.1" id="Capa_1" xmlns="http://www.w3.org/2000/svg" xmlns:xlink="http://www.w3.org/1999/xlink" x="0px" y="0px"
	 viewBox="0 0 496 496" style="enable-background:new 0 0 496 496;" xml:space="preserve">
<g>
	<g>
		<g>
			<path d="M424,40H72c-17.673,0-32,14.327-32,32v352c0,17.673,14.327,32,32,32h352c17.673,0,32-14.327,32-32V72
				C456,54.327,441.673,40,424,40z M112,335.76V160.24L247.76,248L112,335.76z M272,335.76V160.24L407.76,248L272,335.76z"/>
			<path d="M456,0H40C17.92,0.026,0.026,17.92,0,40v416c0.026,22.08,17.92,39.974,40,40h416c22.08-0.026,39.974-17.92,40-40V40
				C495.974,17.92,478.08,0.026,456,0z M480,456c0,13.255-10.745,24-24,24H40c-13.255,0-24-10.745-24-24V40
				c0-13.255,10.745-24,24-24h416c13.255,0,24,10.745,24,24V456z"/>
		</g>
	</g>
</g>
</svg>
